# xmcd
#
# Track frame offsets:
# 150
# 10296
# 20429
# 36548
# 54857
# 70117
# 86366
# 101872
# 115156
# 128197
# 144866
# 166814
# 180286
# 196214
# 210360
# 227489
# 241068
#
# Disc length: 3327 seconds
#
#
# Revision: 0
# Processed by: cddbd v1.5.1PL2 Copyright (c) Steve Scherf et al.
# Submitted via: FreeRIP 2.944 
#
DISCID=cf0cfd11
DTITLE=S muzikou mnì baví svìt - S muzikou me bavi svet
DYEAR=2002
DGENRE=Country
TTITLE0=Dajana
TTITLE1=Nelly Gray
TTITLE2=Mocal v Saint Luis
TTITLE3=Zatoka
TTITLE4=Cabaleri, zapad hori
TTITLE5=Hrac
TTITLE6=Chvile, kdy jsem byl s ni
TTITLE7=Neni nejhur jak se zda
TTITLE8=Slamu v botach nosim
TTITLE9=Slunce shanim
TTITLE10=Do tmy se koukej
TTITLE11=Tulackej sen
TTITLE12=Hrozna cesta
TTITLE13=Mym domovem je ztichla putyka
TTITLE14=Niagara
TTITLE15=Rikatado
TTITLE16=Tuhle rundu platim ja
EXTD=
EXTT0=
EXTT1=
EXTT2=
EXTT3=
EXTT4=
EXTT5=
EXTT6=
EXTT7=
EXTT8=
EXTT9=
EXTT10=
EXTT11=
EXTT12=
EXTT13=
EXTT14=
EXTT15=
EXTT16=
PLAYORDER=
